<?xml version="1.0" encoding="UTF-8"?>
<svg id="Capa_1" data-name="Capa 1" xmlns="http://www.w3.org/2000/svg" viewBox="0 0 400 400">
  <defs>
    <style>
      .cls-1 {
        fill: #fbd317;
        fill-rule: evenodd;
      }
    </style>
  </defs>
  <path class="cls-1" d="M199.9,93.32c49.86,0,90.95,34.54,95.85,78.89,.2,.61,.2,1.02,.2,1.63v1.43c.21,2.04,.41,4.09,.41,5.92,0,28.2-.41,56.2-.41,84.4,0,2.45-2.04,4.29-4.69,4.29H109.36c-2.65,0-4.91-1.84-4.91-4.29,0-28.2-.82-56.4-.82-84.4,0-48.64,43.13-87.88,96.26-87.88h0Zm0,213.36c78.89,0,143.67-7.15,151.24-16.35,.41-.21,.61-.21,.61-.41v-.2c.2-.41,.2-.82,.2-1.23,0-5.93-.2-11.85-.2-17.57,0-.61-3.48-1.02-7.77-1.02H56.84c-4.08,0-7.56,.41-7.56,1.02,0,5.72-1.22,11.65-1.22,17.57,0,10.01,68.06,18.19,151.84,18.19h0Zm0-120.17c15.33,0,27.79,10.63,29.43,24.32v.82c0,.61,.21,1.23,.21,1.84,0,8.58-.21,46.6-.21,55.18,0,.61-.61,1.23-1.43,1.23h-55.59c-.81,0-1.64-.62-1.64-1.23,0-8.58-.2-46.6-.2-55.18,0-14.92,13.28-26.98,29.43-26.98h0Zm-44.35-61.51c20.24-11.65,44.96-7.15,57.43,9.6,0,.2,.21,.41,.42,.61l.41,.61c.41,.61,.81,1.43,1.22,2.25-16.15-3.47-33.11-1.43-47.83,6.95-14.71,8.58-24.93,22.28-30.04,38.01-11.24-19.62-3.07-45.58,18.39-58.04h0Z"/>
</svg>