<?xml version="1.0" encoding="UTF-8"?>
<svg id="Capa_1" data-name="Capa 1" xmlns="http://www.w3.org/2000/svg" viewBox="0 0 400 400">
  <defs>
    <style>
      .cls-1 {
        fill: #fbd317;
      }
    </style>
  </defs>
  <g id="y6K3p7">
    <path class="cls-1" d="M316.3,307.87H83.9v-97.18H50.34c6.76,5.57,12.58,10.37,18.61,15.34-6.54,6.39-11.19,10.92-15.49,15.12-13.77-13.77-27.57-27.59-41.06-41.09,13.3-13.23,27.24-27.09,41.44-41.22,3.7,3.99,8.09,8.72,13.07,14.09-5,4.43-10.57,9.35-16.13,14.28,.38,.58,.76,1.16,1.14,1.73h31.52V92.13h232.42v96.89h33.34c-6.46-5.64-12.14-10.59-17.64-15.39,6.13-6.07,10.72-10.62,15.08-14.95,13.64,13.77,27.38,27.64,40.95,41.34-13.42,13.21-27.45,27.01-41.63,40.97-3.87-3.95-8.4-8.57-13.88-14.17,5.55-4.76,11.19-9.61,16.83-14.45-.36-.54-.72-1.08-1.07-1.62h-31.54v97.11Zm-110.92-128.86c1.47,.2,2.6,.44,3.74,.49,9.56,.46,12.18,3.15,12.22,12.66,.02,5.93,.1,11.87-.03,17.8-.15,6.48-3.47,10.41-9.77,10.09-6-.31-6.7,2.34-6.65,7.31,.2,21.75,.08,43.5,.11,65.26,0,1.92,.21,3.85,.34,6.12h101.22v-88.53h-34.14v-20.69h34.15V101h-101.18v78Zm-77.92,31.39h-34.12v88.15h101.42c0-24.47-.1-48.4,.09-72.32,.04-4.57-1.17-6.21-5.98-6.14-7.15,.11-10.29-3.43-10.42-10.71-.12-6.13-.09-12.27-.01-18.4,.1-7.98,3.11-11.33,11.05-11.34,4.25,0,5.38-1.45,5.35-5.5-.15-22.95-.07-45.91-.1-68.86,0-1.33-.28-2.65-.46-4.22H93.3v88.65h34.17v20.7Zm66.89-25.01c-9.01-1.74-10.85-.34-10.89,7.99-.02,4.33-.02,8.66,0,12.99,.04,8.36,1.77,9.69,10.89,8.02v-29Zm10.64-.12c0,8.16-.04,16,.02,23.84,.02,2.79-.91,6.14,3.98,6.11,4.44-.03,7.31-1.31,7.29-6.27-.01-5.12,.02-10.24,0-15.35-.04-8.56-1.46-9.7-11.29-8.32Z"/>
  </g>
</svg>