<?xml version="1.0" encoding="UTF-8"?>
<svg id="Capa_1" data-name="Capa 1" xmlns="http://www.w3.org/2000/svg" viewBox="0 0 400 400">
  <defs>
    <style>
      .cls-1 {
        fill: #fbd317;
        fill-rule: evenodd;
      }
    </style>
  </defs>
  <path class="cls-1" d="M77.89,209.5l108.11-107.91,48.23,48.23-108.11,108.11-48.23-48.44Zm-22.48,23.91l22.48-23.91,8.78,8.99,8.79,8.79-40.06,6.12Zm128.34-33.1l38.02,38.02c-4.5,2.24-8.18,5.93-10.43,10.42l-38.01-38.02,10.42-10.42Zm48.23,35.57c-12.67,0-23.1,10.42-23.1,23.29s10.42,23.1,23.1,23.1,23.29-10.43,23.29-23.1-10.42-23.29-23.29-23.29h0Zm0,14.1c-4.91,0-9.2,4.08-9.2,9.19s4.29,9,9.2,9,9.19-4.09,9.19-9-4.08-9.19-9.19-9.19h0Zm73.98,0h-52.53c1.22,2.86,1.84,5.92,1.84,9.19,0,3.06-.61,6.34-1.84,9h52.53v-18.19Zm0-18.81h19.41v55.79h-19.41v-55.79Zm19.41-11.24h19.21v78.48h-19.21v-78.48Z"/>
</svg>