<?xml version="1.0" encoding="UTF-8"?>
<svg id="Capa_1" data-name="Capa 1" xmlns="http://www.w3.org/2000/svg" viewBox="0 0 400 400">
  <defs>
    <style>
      .cls-1 {
        fill: #fbd317;
        fill-rule: evenodd;
      }
    </style>
  </defs>
  <path class="cls-1" d="M133.68,62.77h132.63c5.52,0,10.02,4.5,10.02,10.02v254.43c0,5.52-4.49,10.01-10.02,10.01H133.68c-5.52,0-10.01-4.49-10.01-10.01V72.79c0-5.52,4.49-10.02,10.01-10.02h0Zm126.51,19.83v211.32h-120.58V82.59h120.58Zm-70.1,221.94h19.83c.81,0,1.43,.61,1.43,1.43v17.59c0,.61-.61,1.22-1.43,1.22h-19.83c-.82,0-1.43-.61-1.43-1.22v-17.59c0-.81,.61-1.43,1.43-1.43h0Zm9.81-151.44c19.41,0,35.36,15.74,35.36,35.15s-15.94,35.15-35.36,35.15-35.15-15.73-35.15-35.15,15.74-35.15,35.15-35.15h0Zm-20.84,38.02l1.84-1.84c.82-.81,2.25-.81,3.07,0l7.15,7.36,24.93-24.93c.82-1.03,2.25-1.03,3.07,0l1.84,1.84c.82,.81,.82,2.04,0,2.86l-26.36,26.57-2.04,1.84h0v.21h-.21v.21h-.41v.2h-1.64v-.2h-.2l-.2-.21h-.2v-.21h0l-1.84-1.84-8.79-8.78c-.82-.83-.82-2.25,0-3.07h0Z"/>
</svg>