<?xml version="1.0" encoding="UTF-8"?>
<svg id="Capa_1" data-name="Capa 1" xmlns="http://www.w3.org/2000/svg" viewBox="0 0 400 400">
  <defs>
    <style>
      .cls-1 {
        fill: #fbd317;
      }
    </style>
  </defs>
  <g id="orXCoG">
    <g>
      <path class="cls-1" d="M224.4,219.62h9.14c.07-.34,.13-.65,.2-.96,.46-2.01,1.54-2.91,3.59-2.92,4.22-.02,8.44,0,12.67,0,3.65,0,7.31,0,10.96,0,2.37,0,3.53,.97,3.81,3.34,.17,1.44,.16,2.92,.07,4.37-.06,1.06,.2,1.63,1.21,2.16,10.38,5.4,18.16,13.39,23.27,23.92,3.43,7.08,5.17,14.59,5.19,22.47,.02,16.24,.01,32.48,0,48.72,0,2.73-1.29,4.02-4.03,4.02-21.76,0-43.52-.02-65.28-.02-38.49,0-76.97,.02-115.46,0-.9,0-1.88-.18-2.67-.59-1.17-.6-1.57-1.78-1.57-3.09,0-9.05,0-18.11,0-27.16,0-6.9-.09-13.8,.01-20.7,.31-21.51,9.97-37.42,28.81-47.77,.68-.38,.88-.78,.86-1.51-.05-1.58-.11-3.17,.05-4.74,.25-2.44,1.43-3.42,3.87-3.42,7.55,0,15.1,0,22.65,0,3.28,0,4.03,.61,4.73,3.9h9.13c0-2.49,.04-4.92-.05-7.34-.01-.37-.61-.79-1.02-1.06-9.37-6.24-15.82-14.68-19.23-25.41-1.44-4.52-2.1-9.17-2.1-13.91,0-7.96-.05-15.91,.03-23.87,.02-2.34-.66-4.1-2.42-5.75-3.97-3.71-7.71-7.67-11.59-11.48-1.35-1.32-1.71-2.73-1.1-4.52,2.53-7.37,5.02-14.75,7.51-22.13,.5-1.49,1.69-2.08,3.07-2.48,3.78-1.1,7.59-2.11,11.32-3.35,9.22-3.07,18.21-6.7,26.41-12.01,4.11-2.66,7.92-5.66,10.85-9.66,1.35-1.84,4.01-1.86,5.36-.03,3.62,4.93,8.47,8.35,13.64,11.39,9.2,5.4,19.14,9.02,29.3,12.08,1.94,.58,3.89,1.15,5.86,1.64,1.58,.39,2.5,1.32,3.01,2.85,2.43,7.27,4.89,14.54,7.37,21.79,.58,1.69,.25,3.06-1.02,4.32-4.33,4.28-8.64,8.59-12.9,12.93-.51,.52-.94,1.36-.99,2.08-.18,2.87-.24,5.76-.25,8.64-.01,5.56,.09,11.12,.07,16.69-.05,17.22-7.3,30.63-21.52,40.29-.6,.4-.9,.8-.88,1.55,.05,2.22,.02,4.44,.02,6.74Zm-24.37-135.49c-7.81,7.75-17.17,12.75-27.12,16.65-6.6,2.59-13.41,4.63-20.15,6.85-.88,.29-1.32,.7-1.6,1.55-1.85,5.58-3.74,11.15-5.66,16.71-.27,.79-.21,1.3,.42,1.91,3.71,3.64,7.35,7.35,11.06,10.98,.43,.42,1.17,.75,1.77,.75,27.52,.04,55.05,.04,82.57,0,.6,0,1.33-.34,1.77-.76,3.71-3.63,7.36-7.34,11.06-10.99,.58-.57,.69-1.04,.43-1.8-1.64-4.71-3.41-9.39-4.75-14.19-.8-2.86-2.22-4.18-5.13-4.97-10.55-2.88-20.76-6.74-30.34-12.09-5.19-2.9-10.05-6.26-14.32-10.61Zm39.95,77.14c-1.53,1.22-2.83,2.38-4.25,3.36-4.92,3.37-10.41,4.73-16.34,4.7-13.48-.06-26.95,0-40.43-.08-6.86-.04-12.82-2.55-17.87-7.2-.27-.25-.56-.48-.91-.77,0,4.72-.06,9.25,.03,13.79,.04,1.73,.34,3.48,.7,5.18,3.71,17.67,19,30.62,37.29,31.63,17.64,.98,34.14-10.43,39.81-27.38,2.53-7.55,1.86-15.31,1.97-23.24Zm.46,61.36c0,.58,0,1.02,0,1.46,0,5.03,.02,10.07,.02,15.1,0,1.66,.04,3.34-.12,4.99-.57,5.96-3.39,10.85-7.38,15.15-3.62,3.89-7.85,7.04-12.28,9.94-5.4,3.53-10.83,7.02-16.26,10.5-.72,.46-1.01,.99-1.01,1.87,.03,11.65,.02,23.3,.02,34.95v1.27h54.51v-95.22h-17.49Zm-43.9,95.27c.03-.36,.06-.6,.06-.83,0-11.9,.01-23.79-.03-35.69,0-.49-.4-1.15-.82-1.43-3.2-2.15-6.46-4.21-9.67-6.35-4.32-2.88-8.68-5.71-12.9-8.74-3.47-2.5-6.5-5.51-9-9.02-3.05-4.3-4.65-9.04-4.61-14.35,.05-5.85,0-11.69-.02-17.54,0-.43,0-.86,0-1.32h-17.46v95.26h54.44Zm-61.39-85.13c-.56,.32-.98,.52-1.37,.78-13.84,9.17-21.17,22.04-21.41,38.66-.21,14.77-.05,29.55-.05,44.33,0,.43,0,.86,0,1.32h22.82v-85.08Zm152.55,85.1c0-.46,0-.78,0-1.11,0-15.02,.23-30.04-.07-45.06-.33-16.51-7.79-29.26-21.6-38.3-.32-.21-.68-.36-1.1-.59v85.05h22.77Zm-63.3-91.3c0,.7,.01,1.26,0,1.82-.07,2.84,.09,5.71-.25,8.51-1.45,11.77-11.41,20.75-23.26,21.15-11.95,.4-22.58-7.89-24.69-19.58-.61-3.36-.39-6.87-.54-10.31-.02-.51,0-1.02,0-1.57h-9.16c-.04,.24-.08,.39-.08,.55-.02,4.71-.02,9.42-.05,14.12-.02,4.42,1.58,8.23,4.28,11.65,2.85,3.61,6.31,6.56,10.1,9.09,6.18,4.12,12.45,8.1,18.71,12.09,.31,.19,.99,.08,1.35-.14,2.07-1.29,4.09-2.65,6.12-3.98,4.52-2.95,9.11-5.79,13.55-8.87,3.82-2.65,7.23-5.78,9.89-9.65,2.2-3.2,3.38-6.69,3.3-10.63-.09-4.3-.02-8.61-.02-12.91v-1.34h-9.23Zm15.61-80.08h-79.95c.06,.37,.09,.65,.16,.92,2.05,8.73,10.01,15.02,19.19,15.05,13.84,.04,27.68,.02,41.52,0,4.18,0,8-1.25,11.38-3.73,4.13-3.04,6.68-7.09,7.71-12.23Zm-57.48,68.92c-.03,.37-.07,.57-.07,.77,0,6.01,0,12.02,.03,18.02,0,.97,.13,1.95,.32,2.9,1.78,8.88,9.97,14.92,19.02,14.06,8.81-.84,15.68-8.43,15.73-17.41,.03-5.36,.01-10.72,.02-16.07,0-.71,0-1.42,0-2.3-5.78,2.26-11.56,3.39-17.54,3.39-5.99,0-11.77-1.12-17.5-3.36Z"/>
      <path class="cls-1" d="M200.04,101.84c3.69,0,7.39,0,11.08,0,2.29,0,3.4,.73,4.23,2.92,1.19,3.15,1.33,6.46,.9,9.73-1.18,9.04-5.98,15.49-14.29,19.32-1.31,.6-2.54,.57-3.87,.02-11.07-4.6-17.08-17.7-13.32-29.09,.71-2.16,1.73-2.89,4.06-2.9,3.73,0,7.47,0,11.2,0Zm-9.16,6.82c-.09,.26-.14,.37-.17,.49-1.46,6.52,2.7,15,8.76,17.75,.36,.16,.95,.09,1.32-.1,5.97-3.09,9.72-10.55,8.69-17.16-.12-.75-.39-1.02-1.17-1-2.11,.05-4.21,.02-6.32,.02-3.68,0-7.37,0-11.11,0Z"/>
      <path class="cls-1" d="M230.9,310.61c-4.3,0-8.61,.03-12.91-.01-3.21-.03-5.71-2.5-5.77-5.72-.06-3.21-.06-6.41,0-9.62,.06-3.35,2.62-5.74,6.13-5.75,6.62-.03,13.23,0,19.85,0,1.83,0,3.65-.02,5.48,0,3.64,.05,6.01,2.46,6.03,6.07,.02,3,.04,6.01,.03,9.01-.02,3.61-2.44,6.01-6.06,6.03-4.26,.02-8.52,0-12.78,0Zm11.98-6.85v-7.38h-23.76v7.38h23.76Z"/>
      <path class="cls-1" d="M168.99,310.62c-4.18,0-8.36,0-12.54,0-3.76-.01-6.15-2.4-6.17-6.17-.01-2.96-.01-5.93,0-8.89,.02-3.52,2.42-6.02,5.95-6.04,8.52-.04,17.05-.04,25.57,0,3.58,.02,5.99,2.53,6.01,6.12,.02,2.96,.02,5.93,0,8.89-.02,3.64-2.49,6.08-6.16,6.09-4.22,.01-8.44,0-12.67,0Zm11.94-14.24h-23.79v7.35h23.79v-7.35Z"/>
    </g>
  </g>
</svg>