<?xml version="1.0" encoding="UTF-8"?>
<svg id="Capa_1" data-name="Capa 1" xmlns="http://www.w3.org/2000/svg" viewBox="0 0 400 400">
  <defs>
    <style>
      .cls-1 {
        fill: #fbd317;
        fill-rule: evenodd;
      }
    </style>
  </defs>
  <path class="cls-1" d="M200,74.42l98.1,33.31-17.57,159.81-80.53,56.61-80.72-56.61-17.37-159.81,98.1-33.31Zm1.43-4.5l98.1,33.31,3.68,1.23-.42,3.88-17.37,159.61-.41,2.25-1.64,1.22-80.73,56.61-2.66,2.05-2.86-2.05-80.52-56.61-1.84-1.22-.21-2.25-17.37-159.61-.41-3.88,3.68-1.23,97.9-33.31h3.06Zm91.35,41.07l-92.78-31.47-92.78,31.47,16.75,153.69,76.03,53.54,76.03-53.54,16.76-153.69Zm-92.78,19.21c30.45,0,55.18,24.73,55.18,55.38s-24.73,55.18-55.18,55.18-55.38-24.73-55.38-55.18,24.73-55.38,55.38-55.38h0Zm-33.1,60.08l3.06-3.07c1.23-1.22,3.26-1.22,4.7,0l11.44,11.44,39.24-39.24c1.23-1.22,3.48-1.22,4.7,0l2.86,2.86c1.43,1.43,1.43,3.47,0,4.7l-41.48,41.69-3.07,2.86v.2h-.2v.21h-.21v.2h-.41v.2h-.41l-.21,.2h-1.84v-.2h-.61v-.2h-.2l-.21-.2h-.2v-.21h-.21v-.2l-2.87-2.86-13.89-13.7c-1.23-1.43-1.23-3.47,0-4.7h0Z"/>
</svg>