<?xml version="1.0" encoding="UTF-8"?>
<svg id="Capa_2" data-name="Capa 2" xmlns="http://www.w3.org/2000/svg" viewBox="0 0 891.37 259.89">
  <defs>
    <style>
      .cls-1, .cls-2 {
        fill: #e02780;
      }

      .cls-3 {
        fill: #102948;
      }

      .cls-2 {
        font-family: UnisonPro-LightRound, 'Unison Pro';
        font-size: 21.89px;
        font-weight: 300;
      }

      .cls-4 {
        letter-spacing: .2em;
      }

      .cls-5 {
        letter-spacing: .18em;
      }
    </style>
  </defs>
  <g id="Capa_1-2" data-name="Capa 1">
    <g>
      <g>
        <path class="cls-3" d="M67.98,63.92c17.01-4.38,29.65-7.43,38.17-9.4l.66-3.84-4.39-4.28c-8.51,1.99-20.63,4.92-36.63,9.05-5.12,1.32-9.72,2.51-13.86,3.6,3.16,2.35,6.58,4.5,10.28,6.38,1.86-.48,3.77-.98,5.78-1.49Z"/>
        <path class="cls-3" d="M22.84,114.1c-.61,.1-1.22,.2-1.82,.29,.35,3.19,.77,6.55,1.26,10.05,.48,.26,.98,.49,1.49,.7,2.47,1.02,5.11,1.42,7.69,1.46-.74-4.93-1.32-9.56-1.78-13.89-1.7,.44-3.91,.91-6.84,1.39Z"/>
        <path class="cls-3" d="M32.4,132.55c-.16-.96-.32-1.92-.47-2.86-3.01,0-6.14-.44-9.13-1.63,.39,2.6,.83,5.29,1.3,8.06l.77-.31c2.5-1.01,5.07-2.12,7.53-3.26Z"/>
        <path class="cls-3" d="M28.24,137.73c1.85,1.6,3.77,2.86,5.76,3.78-.38-1.99-.73-3.93-1.06-5.84-1.82,.82-3.46,1.54-4.69,2.06Z"/>
        <path class="cls-3" d="M30.02,164.47c.81,3.33,1.75,6.58,2.79,9.76,4.78,4.71,9.7,9.05,14.75,12.97-3.78-7.63-6.86-15.89-9.03-24.8-1.47-6.05-2.74-11.82-3.84-17.31-3.34-1.19-6.78-3.26-10.17-6.61,1.43,8.03,3.23,16.69,5.5,26Z"/>
        <path class="cls-3" d="M19.39,91.03c.12,4.49,.37,9.58,.85,15.31,3.31,.82,6.49,1.14,8.93,1.24-.55-6.13-.85-11.55-.98-16.26-2.7,.05-5.73-.07-8.8-.29Z"/>
        <path class="cls-3" d="M28.43,74.4c5.32-1.47,14.71-4.02,29.39-7.85-3.02-1.72-6.28-3.87-9.63-6.53-7.72,2.03-13.61,3.61-17.93,4.79l5.48,2.48h-7.11c-1.25,0-2.73-.31-4.34-.84-2.76,.77-3.98,1.13-3.98,1.13,0,0-1,6.15-.98,17.99,3.53,1.35,6.75,2.01,8.81,2.32-.08-5.82,.1-10.35,.31-13.5Z"/>
        <path class="cls-3" d="M20.53,109.56c.06,.58,.12,1.18,.18,1.78,1.84-.29,3.6-.59,5.17-.91-1.65-.17-3.47-.45-5.35-.87Z"/>
        <path class="cls-3" d="M215.5,106.35c.48-5.73,.73-10.82,.85-15.31-3.07,.22-6.1,.34-8.8,.29-.13,4.71-.43,10.13-.98,16.26,2.44-.1,5.62-.41,8.93-1.24Z"/>
        <path class="cls-3" d="M203.8,129.69c-.15,.94-.3,1.9-.46,2.86,2.46,1.13,5.03,2.25,7.53,3.26l.77,.31c.48-2.76,.91-5.45,1.3-8.06-2.99,1.19-6.12,1.63-9.13,1.63Z"/>
        <path class="cls-3" d="M169.96,55.44c-16-4.12-28.12-7.06-36.63-9.05l-4.39,4.28,.66,3.84c8.52,1.97,21.17,5.02,38.18,9.4,2.01,.52,3.93,1.01,5.79,1.5,3.13-1.59,6.61-3.67,10.24-6.38-4.14-1.08-8.74-2.28-13.84-3.59Z"/>
        <path class="cls-3" d="M197.21,162.4c-2.16,8.9-5.25,17.17-9.03,24.8,5.05-3.92,9.97-8.25,14.75-12.96,1.04-3.18,1.98-6.43,2.79-9.76,2.26-9.31,4.06-17.97,5.5-26-3.39,3.35-6.83,5.43-10.17,6.61-1.1,5.5-2.37,11.27-3.84,17.32Z"/>
        <path class="cls-3" d="M207.62,87.9c2.06-.31,5.27-.96,8.81-2.32,.01-11.85-.98-17.99-.98-17.99,0,0-1.22-.36-3.98-1.13-1.61,.53-3.09,.84-4.34,.84h-7.1l5.47-2.48c-4.32-1.18-10.22-2.76-17.94-4.8-2.98,2.36-6.19,4.56-9.65,6.53,14.69,3.83,24.09,6.38,29.42,7.85,.21,3.16,.38,7.68,.31,13.5Z"/>
        <path class="cls-3" d="M211.96,125.14c.51-.21,1.01-.45,1.49-.7,.49-3.5,.91-6.86,1.26-10.05-.6-.09-1.21-.19-1.82-.29-2.93-.48-5.14-.95-6.84-1.39-.46,4.33-1.05,8.95-1.78,13.89,2.58-.03,5.21-.44,7.69-1.46Z"/>
        <path class="cls-3" d="M207.5,137.73c-1.23-.52-2.88-1.23-4.69-2.06-.33,1.9-.68,3.84-1.06,5.82,1.9-.88,3.82-2.1,5.75-3.76Z"/>
        <path class="cls-3" d="M27.96,65.44c-.24,.07-.47,.13-.7,.19,.48,.08,.94,.13,1.36,.13,0,0-.24-.11-.67-.32Z"/>
        <path class="cls-3" d="M206.42,109.13c-.06,.67-.13,1.35-.2,2.04,2.49,.66,5.68,1.24,8.65,1.69,.05-.51,.11-1.02,.16-1.52-1.84-.29-3.6-.59-5.17-.91,1.65-.17,3.47-.45,5.35-.87,.05-.54,.1-1.07,.14-1.61-3.35,.79-6.51,1.08-8.93,1.17Z"/>
        <path class="cls-3" d="M181.71,198.63c-6,9.4-13.06,17.63-20.63,24.72,8.29-3.71,16.34-8.47,24.09-14.17,5.07-7.1,9.56-14.85,13.26-23.23-5.44,4.72-11.02,8.96-16.72,12.69Z"/>
        <path class="cls-3" d="M117.87,250.58c-9.71-3.66-20.22-9.21-30.4-16.64-8.66-2.51-17.14-6.11-25.4-10.73,16.72,17.86,37.03,30.21,55.8,36.68,18.77-6.47,39.07-18.82,55.79-36.67-8.25,4.62-16.74,8.21-25.39,10.72-10.17,7.43-20.69,12.98-30.4,16.64Z"/>
        <path class="cls-3" d="M54.03,198.63c-5.7-3.72-11.28-7.97-16.72-12.69,3.7,8.38,8.18,16.13,13.25,23.22,7.75,5.71,15.8,10.47,24.1,14.18-7.57-7.08-14.63-15.32-20.63-24.72Z"/>
        <polygon class="cls-1" points="110.11 49.6 109.39 53.77 108.28 60.28 117.87 55.24 127.46 60.28 126.35 53.77 125.63 49.6 129.77 45.57 133.39 42.04 122.67 40.48 117.87 30.76 113.07 40.48 102.35 42.04 105.97 45.57 110.11 49.6"/>
        <path class="cls-1" d="M134.2,122.98l-1.3-2.74h-5.46l-3.65-3.49h-12.07l-2.11,6.22c-.33,.99-.65,1.97-.96,2.95-1.68,5.31-3.42,10.8-8.33,14.87-3.81,3.16-8.6,4.29-13.49,3.19-7.14-1.61-12.67-6.68-15.4-9.64-13.89-9.85-11.61-58.51-11.14-66.44-11.59-6.01-27.51-18.39-39.31-43.52C16.16,14.13,13.56,5.06,12.34,0l-3.97,7.53C1.29,17.07-1.14,26.42,1.16,35.31c4.73,18.28,27.86,28.95,28.1,29.06l6.48,2.94h-7.11c-7.38,0-22.56-10.63-28.37-14.91-.99,9.98,1.03,18.11,6.04,24.2,8.79,10.7,24.02,11.57,24.17,11.58l.03,3.07c-8.68,.58-22.87-1.36-28.2-2.16,1.61,8.41,7.09,14.06,16.31,16.82,7.64,2.29,15.09,1.65,15.17,1.64l2.44-.22-.86,2.29c-.47,1.25-1.86,2.74-12.5,4.5-3.3,.55-6.58,.96-8.6,1.2,2.11,4.8,5.31,8.11,9.53,9.84,10.14,4.17,23.06-1.91,23.19-1.97l2.44-1.17-.24,2.69c-.15,1.62-1.7,3.97-12.08,9.03-3.35,1.64-6.72,3.11-8.84,4.01,5.89,5.08,12.48,6.75,19.63,4.96,5.93-1.48,10-4.85,10.04-4.88l2.52-2.11v3.29c0,.87,0,2.86-17.16,13.66,6.69,8.59,31.09,16.64,32.41,17.07,9.08,2.18,22.28,8.04,33.74,23.58,4.21,5.71,6.94,11.03,8.45,14.36,1.51-3.33,4.24-8.65,8.45-14.36,6.33-8.59,17.32-19.65,33.74-23.58,1.32-.43,25.71-8.48,32.41-17.07-17.15-10.8-17.16-12.8-17.16-13.66v-3.29l2.52,2.11c.64,.53,15.22,12.37,29.67-.08-2.12-.9-5.49-2.37-8.84-4.01-10.38-5.07-11.93-7.41-12.08-9.03l-.25-2.7,2.44,1.17c.13,.06,13.05,6.14,23.19,1.97,4.22-1.73,7.42-5.04,9.53-9.84-2.02-.24-5.3-.65-8.6-1.2-10.64-1.76-12.03-3.24-12.5-4.5l-.86-2.29,2.44,.22c.07,0,7.53,.65,15.17-1.64,9.22-2.76,14.69-8.41,16.31-16.82-5.33,.8-19.52,2.74-28.2,2.16l.03-3.04v-.03s0,0,0,0c.23-.01,15.4-.91,24.17-11.58,5-6.09,7.03-14.22,6.04-24.2-5.81,4.28-20.99,14.91-28.37,14.91h-7.1l6.46-2.94c.23-.11,23.38-10.81,28.1-29.07,2.29-8.88-.14-18.23-7.22-27.77l-.13-.2-3.84-7.33c-1.22,5.06-3.82,14.13-8.64,24.39-6.59,14.03-18.74,32.86-39.31,43.52,.47,7.96,2.77,56.94-11.29,66.55-.72,.49-1.41,1.19-2.14,1.94-.64,.66-1.31,1.33-2.05,1.91-3.78,2.97-7.37,4.83-10.98,5.66-3.58,.83-7.09,.5-10.14-.95-4.6-2.18-8.25-6.26-9.31-10.39-.05-.2-.14-.65-.33-1.58-.29-1.42-1.06-5.18-1.32-5.79,.13,.31,.6,.79,1.32,.79v-1.54h0v-1.54h4.99Z"/>
      </g>
      <g>
        <g>
          <path class="cls-3" d="M420.47,108.13v34.5h35.27v20.03h-120.63V76.31h112.26V37.59c-8.94-.18-40.41-.23-51.5-.23-103.93,0-108.38,4.23-108.38,82.12s4.23,82.12,108.38,82.12,107.94-4.23,107.94-82.12v-11.35h-83.34Z"/>
          <g>
            <path class="cls-1" d="M674.96,155.22c12.47,0,50.08-.22,50.08-.22,4,8.68,11.8,7.79,57.2,7.79,54.08,0,59.42-.67,59.42-16.25s-5.34-16.69-59.42-16.69c-40.73,0-51.85,0-56.97,7.12h-50.3V37.55h-56.63v115.98l-100.59-115.98h-62.54v63.02h47.62v-10.69l90.29,105.23c3.43,4,8.44,6.3,13.72,6.3h144.64c-55.41-1.46-76.51-9.21-76.51-46.19Z"/>
            <path class="cls-1" d="M723.03,99.14c17.14-3.12,37.17-4,95.92-4,39.16,0,66.54,2.91,70.14,43.72v-61.77h-166.28c0,5.56,.22,18.94,.22,22.06Z"/>
            <path class="cls-1" d="M813.12,201.41h57.89c9.98,0,18.08-8.09,18.08-18.08v-25.22c-3.15,34.73-25.03,41.9-75.97,43.29Z"/>
          </g>
        </g>
        <path class="cls-3" d="M401.77,130.6c-2.77,0-5.02-2.25-5.02-5.02s2.25-5.02,5.02-5.02c2.06,0,3.82,1.24,4.6,3.01h10.04l.06-15.45h-22.25c-7.27,0-13.16,5.89-13.16,13.16v8.18c0,7.27,5.89,13.16,13.16,13.16h22.11l.06-15.04h-10.02c-.77,1.77-2.54,3.01-4.6,3.01Z"/>
      </g>
      <text class="cls-2" transform="translate(289.78 244.64)"><tspan class="cls-4" x="0" y="0">¡PROFESIONALES EN SEGURI</tspan><tspan class="cls-5" x="517.82" y="0">D</tspan><tspan class="cls-4" x="542.93" y="0">AD!</tspan></text>
    </g>
  </g>
</svg>